<svg xmlns="http://www.w3.org/2000/svg" xmlns:xlink="http://www.w3.org/1999/xlink" version="1.1" id="v-8"><rect id="svg-background" width="100%" height="100%" fill="#F5F6F6"></rect><g id="v-9" class="viewport" transform="translate(10 18)"><g id="j_275" model-id="3cf75e53-9085-4d95-aa8d-185ac9ca5181" class="link joint-theme-default"><path class="connection" stroke="#d2d2dc" d="M 582 240 240 240 S 230 240 230 230 L 230 90 S 230 80 223 79 L 215 78" id="v-3527" stroke-width="1" fill="none"></path><path class="marker-source" fill="white" stroke="#d2d2dc" d="M -5 0 L 5 5 M -5 5 L 5 5 M -5 10 L 5 5 M 5 5" id="v-3528" stroke-width="1" transform="translate(587,245) scale(1,1) rotate(-180)"></path><path class="marker-target" fill="white" stroke="#d2d2dc" d="M 6 0 L 6 10 M 6 5 L 0 5 z" id="v-3529" stroke-width="1" transform="translate(209.70710637788437,72.05025169720999) scale(1,1) rotate(8.130096435546946)"></path><g class="labels" id="v-3531"></g></g><g id="j_274" model-id="1e712c90-fa8e-4a4c-b3e0-b3265dfde58d" class="link joint-theme-default"><path class="connection" stroke="#d2d2dc" d="M 582 210 240 210 S 230 210 230 200 L 230 90 S 230 80 223 79 L 215 78" id="v-3513" stroke-width="1" fill="none"></path><path class="marker-source" fill="white" stroke="#d2d2dc" d="M -5 0 L 5 5 M -5 5 L 5 5 M -5 10 L 5 5 M 5 5" id="v-3514" stroke-width="1" transform="translate(587,215) scale(1,1) rotate(-180)"></path><path class="marker-target" fill="white" stroke="#d2d2dc" d="M 6 0 L 6 10 M 6 5 L 0 5 z" id="v-3515" stroke-width="1" transform="translate(209.70710637788437,72.05025169720999) scale(1,1) rotate(8.130096435546946)"></path><g class="labels" id="v-3517"></g></g><g id="j_273" model-id="b851547d-dc25-4a5f-b3e7-69602723a0ed" class="element basic newt joint-theme-default" magnet="false" fill="#ffffff" stroke="none" transform="translate(26,285)" font-family="Roboto,'Helvetica Neue', sans-serif"><g class="joint-table" onmousedown="QdbdJS.onTableMouseDown(this)" onmouseup="QdbdJS.onTableMouseUp(this)" id="v-3489">
          <rect x="0" y="0" width="279" height="38" class="joint-table-title" onmousedown="QdbdJS.onRowMouseDown()" onmousemove="QdbdJS.onRowMouseMove()" onmouseup="QdbdJS.onRowMouseUp(17)" fill="#005aa0" stroke="#005aa0"></rect>
          <text x="14" y="24" text-anchor="start" class="joint-table-title-text" id="v-3504" pointer-events="none" font-size="14px">Transport</text>
          <g class="joint-table-rows">
            
        <g class="joint-table-row-group" onmousedown="QdbdJS.onRowMouseDown()" onmousemove="QdbdJS.onRowMouseMove()" onmouseup="QdbdJS.onRowMouseUp(19)">
          <rect x="0" y="38" class="joint-table-row" width="279" height="25" stroke="none"></rect>
          
          
          <text x="0" y="60" class="joint-field-text" id="v-3505" pointer-events="none" fill="#333" font-size="12px">
            <tspan x="14" y="60" text-anchor="start" class="joint-field-name pk" fill="#005aa0" font-weight="bold">
              TransportID
            </tspan>
            <tspan x="265" y="60" text-anchor="end" class="joint-field-type" fill="#adb1b5">
              int
            </tspan>
          </text>
          <path class="pk-key" transform="matrix(0.7, 0, 0, 0.7, 228, 47)" d="M22.208,2.205l0.167,0.006l0.167,0.011l0.166,0.015l0.165,0.019l0.164,0.023l0.163,0.028l0.161,0.031l0.16,0.035l0.158,0.039l0.157,0.043l0.156,0.047l0.153,0.051l0.152,0.054l0.151,0.058l0.148,0.061l0.146,0.065l0.145,0.068l0.142,0.072l0.141,0.075l0.138,0.078l0.136,0.082l0.134,0.085l0.132,0.087l0.129,0.091l0.127,0.094l0.125,0.097l0.122,0.099l0.12,0.103l0.117,0.105l0.114,0.108l0.112,0.11l0.11,0.114l0.106,0.116l0.104,0.118l0.101,0.121l0.098,0.123l0.096,0.126l0.092,0.128l0.089,0.13l0.087,0.133l0.083,0.135l0.08,0.137l0.077,0.139l0.074,0.141l0.07,0.144l0.067,0.145l0.064,0.147l0.06,0.149l0.056,0.151l0.053,0.152l0.05,0.154l0.046,0.156l0.042,0.157l0.038,0.159l0.035,0.16l0.03,0.162l0.027,0.162l0.023,0.164l0.018,0.165l0.015,0.167l0.01,0.167l0.007,0.168l0.002,0.168l-0.002,0.169l-0.007,0.168l-0.01,0.167l-0.015,0.166l-0.018,0.166l-0.023,0.163l-0.027,0.163l-0.03,0.162l-0.035,0.16l-0.038,0.159l-0.042,0.157l-0.046,0.156l-0.05,0.154l-0.053,0.152l-0.056,0.151l-0.06,0.149l-0.064,0.147l-0.067,0.145l-0.07,0.143l-0.074,0.142l-0.077,0.139l-0.08,0.137l-0.083,0.135l-0.087,0.132l-0.089,0.131l-0.092,0.128l-0.096,0.125l-0.098,0.124l-0.101,0.121l-0.104,0.118l-0.106,0.116l-0.11,0.113l-0.112,0.111l-0.114,0.108l-0.117,0.105l-0.12,0.103l-0.122,0.099l-0.125,0.097l-0.127,0.094l-0.129,0.09l-0.132,0.088l-0.134,0.085l-0.136,0.081l-0.138,0.078l-0.141,0.076l-0.142,0.071l-0.145,0.069l-0.146,0.064l-0.148,0.062l-0.151,0.058l-0.152,0.054l-0.153,0.05l-0.156,0.047l-0.157,0.043l-0.158,0.039l-0.16,0.036l-0.161,0.031l-0.163,0.027l-0.164,0.024l-0.165,0.019l-0.166,0.015l-0.167,0.01l-0.167,0.007l-0.169,0.002l-0.168,-0.002l-0.168,-0.007l-0.167,-0.01l-0.166,-0.015l-0.165,-0.019l-0.164,-0.024l-0.163,-0.027l-0.161,-0.031l-0.16,-0.036l-0.158,-0.039l-0.157,-0.043l-0.156,-0.047l-0.153,-0.05l-0.152,-0.054l-0.15,-0.058l-0.149,-0.062l-0.146,-0.064l-0.145,-0.069l-0.142,-0.071l-0.141,-0.076l-0.138,-0.078l-0.136,-0.081l-0.134,-0.085l-0.132,-0.088l-0.129,-0.09l-0.127,-0.094l-0.125,-0.097l-0.122,-0.099l-0.12,-0.103l-0.117,-0.105l-0.114,-0.108l-0.112,-0.111l-0.11,-0.113l-0.106,-0.116l-0.104,-0.118l-0.101,-0.121l-0.098,-0.123l-0.096,-0.126l-0.092,-0.128l-0.089,-0.131l-0.087,-0.132l-0.083,-0.135l-0.08,-0.137l-0.077,-0.139l-0.073,-0.142l-0.071,-0.143l-0.067,-0.145l-0.063,-0.147l-0.061,-0.149l-0.056,-0.151l-0.053,-0.152l-0.05,-0.154l-0.046,-0.156l-0.042,-0.157l-0.038,-0.159l-0.035,-0.16l-0.03,-0.162l-0.027,-0.163l-0.023,-0.164l-0.018,-0.165l-0.015,-0.166l-0.01,-0.167l-0.007,-0.168l-0.002,-0.169l0.002,-0.168l0.007,-0.168l0.01,-0.167l0.015,-0.167l0.018,-0.165l0.023,-0.164l0.027,-0.162l0.03,-0.162l0.035,-0.16l0.038,-0.159l0.042,-0.157l0.046,-0.156l0.05,-0.154l0.053,-0.152l0.056,-0.151l0.061,-0.149l0.063,-0.147l0.067,-0.145l0.071,-0.144l0.073,-0.141l0.077,-0.139l0.08,-0.137l0.083,-0.135l0.087,-0.133l0.089,-0.13l0.092,-0.128l0.096,-0.126l0.098,-0.123l0.101,-0.121l0.104,-0.118l0.106,-0.116l0.11,-0.114l0.112,-0.11l0.114,-0.108l0.117,-0.105l0.12,-0.103l0.122,-0.099l0.125,-0.097l0.127,-0.094l0.129,-0.091l0.132,-0.087l0.134,-0.085l0.136,-0.081l0.138,-0.079l0.141,-0.075l0.142,-0.072l0.145,-0.068l0.146,-0.065l0.149,-0.061l0.15,-0.058l0.152,-0.054l0.153,-0.051l0.156,-0.047l0.157,-0.043l0.158,-0.039l0.16,-0.035l0.161,-0.031l0.163,-0.028l0.164,-0.023l0.165,-0.019l0.166,-0.015l0.167,-0.011l0.167,-0.006l0.169,-0.002l0.169,0.002Zm-0.232,4.128l-0.062,0.002l-0.061,0.004l-0.061,0.006l-0.06,0.007l-0.059,0.008l-0.059,0.01l-0.059,0.011l-0.058,0.013l-0.057,0.014l-0.057,0.016l-0.056,0.017l-0.055,0.018l-0.056,0.02l-0.054,0.021l-0.054,0.022l-0.053,0.024l-0.053,0.025l-0.052,0.026l-0.052,0.027l-0.05,0.029l-0.051,0.03l-0.049,0.031l-0.049,0.033l-0.048,0.033l-0.047,0.035l-0.046,0.036l-0.046,0.037l-0.044,0.039l-0.044,0.039l-0.043,0.04l-0.042,0.042l-0.041,0.042l-0.04,0.044l-0.039,0.044l-0.038,0.046l-0.037,0.046l-0.036,0.048l-0.035,0.048l-0.033,0.049l-0.033,0.05l-0.031,0.05l-0.03,0.052l-0.029,0.052l-0.028,0.053l-0.026,0.054l-0.025,0.054l-0.024,0.055l-0.023,0.056l-0.021,0.056l-0.02,0.057l-0.018,0.058l-0.017,0.059l-0.016,0.059l-0.014,0.059l-0.013,0.06l-0.012,0.061l-0.01,0.062l-0.009,0.062l-0.007,0.062l-0.005,0.064l-0.004,0.063l-0.003,0.065l0,0.065l0,0.066l0.003,0.064l0.004,0.064l0.005,0.063l0.007,0.063l0.009,0.062l0.01,0.062l0.012,0.06l0.013,0.061l0.014,0.059l0.016,0.059l0.017,0.058l0.018,0.058l0.02,0.057l0.021,0.057l0.023,0.055l0.024,0.056l0.025,0.054l0.026,0.054l0.028,0.053l0.029,0.052l0.03,0.051l0.031,0.051l0.033,0.05l0.033,0.049l0.035,0.048l0.036,0.047l0.037,0.047l0.038,0.045l0.039,0.045l0.04,0.043l0.041,0.043l0.042,0.041l0.043,0.041l0.044,0.039l0.044,0.038l0.046,0.037l0.046,0.036l0.047,0.035l0.048,0.034l0.049,0.032l0.049,0.032l0.051,0.03l0.05,0.028l0.052,0.028l0.052,0.026l0.053,0.025l0.053,0.024l0.054,0.022l0.054,0.021l0.056,0.02l0.055,0.018l0.056,0.017l0.057,0.015l0.057,0.015l0.058,0.012l0.059,0.012l0.059,0.01l0.059,0.008l0.06,0.007l0.061,0.005l0.061,0.004l0.062,0.003l0.063,0.001l0.063,-0.001l0.062,-0.003l0.061,-0.004l0.061,-0.005l0.06,-0.007l0.059,-0.008l0.059,-0.01l0.059,-0.012l0.058,-0.012l0.057,-0.015l0.057,-0.015l0.056,-0.017l0.056,-0.018l0.055,-0.02l0.054,-0.021l0.054,-0.022l0.053,-0.024l0.053,-0.025l0.052,-0.026l0.052,-0.028l0.051,-0.028l0.05,-0.031l0.049,-0.031l0.049,-0.032l0.048,-0.034l0.047,-0.035l0.046,-0.036l0.046,-0.037l0.045,-0.038l0.043,-0.039l0.043,-0.041l0.042,-0.041l0.041,-0.043l0.04,-0.043l0.039,-0.045l0.038,-0.045l0.037,-0.046l0.036,-0.048l0.035,-0.048l0.033,-0.049l0.033,-0.05l0.031,-0.05l0.03,-0.052l0.029,-0.052l0.028,-0.053l0.026,-0.054l0.025,-0.054l0.024,-0.055l0.023,-0.056l0.021,-0.057l0.02,-0.057l0.018,-0.058l0.017,-0.058l0.016,-0.059l0.014,-0.059l0.013,-0.061l0.012,-0.06l0.01,-0.062l0.009,-0.062l0.007,-0.063l0.005,-0.063l0.004,-0.064l0.003,-0.064l0.001,-0.066l-0.001,-0.065l-0.003,-0.064l-0.004,-0.064l-0.005,-0.064l-0.007,-0.062l-0.009,-0.062l-0.01,-0.062l-0.012,-0.061l-0.013,-0.06l-0.014,-0.059l-0.016,-0.059l-0.017,-0.059l-0.018,-0.058l-0.02,-0.057l-0.021,-0.056l-0.023,-0.056l-0.024,-0.055l-0.025,-0.054l-0.026,-0.054l-0.028,-0.053l-0.029,-0.052l-0.03,-0.052l-0.031,-0.05l-0.033,-0.05l-0.033,-0.049l-0.035,-0.048l-0.036,-0.048l-0.037,-0.046l-0.038,-0.046l-0.039,-0.044l-0.04,-0.044l-0.041,-0.042l-0.042,-0.042l-0.043,-0.04l-0.043,-0.039l-0.045,-0.039l-0.046,-0.037l-0.046,-0.036l-0.047,-0.035l-0.048,-0.033l-0.049,-0.033l-0.049,-0.031l-0.05,-0.03l-0.051,-0.029l-0.052,-0.027l-0.052,-0.026l-0.053,-0.025l-0.053,-0.024l-0.054,-0.022l-0.054,-0.021l-0.055,-0.02l-0.056,-0.018l-0.056,-0.017l-0.057,-0.016l-0.057,-0.014l-0.058,-0.013l-0.059,-0.011l-0.059,-0.01l-0.059,-0.008l-0.06,-0.007l-0.061,-0.006l-0.061,-0.004l-0.062,-0.002l-0.063,-0.001l-0.063,0.001Z" fill="rgba(173,177,181,0.7)"></path>
                <rect class="pk-key" x="229" y="51.5" width="10.2" height="3" fill="rgba(173,177,181,0.7)"></rect>
                <rect class="pk-key" x="230.2" y="54.5" width="2" height="3" fill="rgba(173,177,181,0.7)"></rect>
                <rect class="pk-key" x="234" y="54.5" width="2" height="3" fill="rgba(173,177,181,0.7)"></rect>
          
        </g>
        <g class="joint-table-row-group" onmousedown="QdbdJS.onRowMouseDown()" onmousemove="QdbdJS.onRowMouseMove()" onmouseup="QdbdJS.onRowMouseUp(20)">
          <rect x="0" y="63" class="joint-table-row" width="279" height="25" stroke="none"></rect>
          
          
          <text x="0" y="85" class="joint-field-text" id="v-3506" pointer-events="none" fill="#333" font-size="12px">
            <tspan x="14" y="85" text-anchor="start" class="joint-field-name ">
              LicensePlateNumber
            </tspan>
            <tspan x="265" y="85" text-anchor="end" class="joint-field-type" fill="#adb1b5">
              char(8)
            </tspan>
          </text>
          <path class="uniq-key" transform="matrix(0.39999999999999997, 0, 0, 0.39999999999999997, 192, 72)" d="M9.176,16.069l0.177,0.006l0.176,0.01l0.175,0.014l0.175,0.018l0.172,0.021l0.173,0.026l0.17,0.029l0.169,0.033l0.168,0.036l0.166,0.041l0.165,0.043l0.164,0.048l0.162,0.051l0.16,0.054l0.159,0.058l0.157,0.061l0.155,0.065l0.153,0.067l0.151,0.072l0.149,0.074l0.147,0.078l0.145,0.08l0.144,0.084l0.141,0.088l0.138,0.09l0.136,0.093l0.134,0.096l0.132,0.099l0.129,0.103l0.127,0.105l0.124,0.108l0.121,0.11l0.12,0.115l0.116,0.116l0.113,0.119l0.11,0.123l0.107,0.124l0.105,0.128l0.101,0.13l0.098,0.133l0.095,0.135l0.092,0.138l0.088,0.141l0.084,0.142l0.081,0.146l0.078,0.148l0.073,0.149l0.067,0.146l0.036,0.083l0.033,0.078l0.031,0.078l0.031,0.078l0.029,0.079l0.029,0.08l0.027,0.08l0.026,0.08l0.025,0.081l0.024,0.082l0.023,0.081l0.022,0.082l0.021,0.084l0.02,0.083l0.018,0.083l0.018,0.084l0.016,0.084l0.015,0.085l0.014,0.085l0.013,0.086l0.012,0.085l0.01,0.086l0.009,0.087l0.008,0.086l0.007,0.087l0.006,0.087l0.004,0.087l0.003,0.088l0.002,0.088l0.001,0.088l-0.001,0.087l-0.002,0.088l-0.003,0.088l-0.004,0.088l-0.006,0.087l-0.007,0.086l-0.008,0.086l-0.009,0.087l-0.01,0.086l-0.012,0.086l-0.013,0.085l-0.014,0.085l-0.015,0.085l-0.016,0.085l-0.018,0.083l-0.018,0.083l-0.02,0.084l-0.021,0.083l-0.022,0.082l-0.023,0.081l-0.024,0.082l-0.025,0.081l-0.026,0.08l-0.027,0.08l-0.029,0.08l-0.029,0.079l-0.031,0.078l-0.031,0.078l-0.033,0.078l-0.036,0.083l-0.067,0.146l-0.073,0.15l-0.078,0.147l-0.081,0.146l-0.084,0.143l-0.088,0.14l-0.092,0.138l-0.095,0.135l-0.098,0.133l-0.101,0.13l-0.105,0.128l-0.107,0.125l-0.11,0.122l-0.113,0.119l-0.116,0.117l-0.12,0.114l-0.121,0.111l-0.124,0.108l-0.127,0.105l-0.129,0.102l-0.132,0.099l-0.134,0.096l-0.136,0.094l-0.138,0.089l-0.141,0.088l-0.144,0.084l-0.145,0.081l-0.147,0.077l-0.149,0.075l-0.151,0.071l-0.153,0.068l-0.155,0.064l-0.157,0.061l-0.159,0.058l-0.16,0.055l-0.162,0.051l-0.164,0.047l-0.164,0.044l-0.167,0.04l-0.168,0.037l-0.169,0.032l-0.17,0.029l-0.173,0.026l-0.172,0.021l-0.175,0.018l-0.175,0.014l-0.176,0.01l-0.177,0.006l-0.178,0.002l-0.177,-0.002l-0.178,-0.006l-0.176,-0.01l-0.175,-0.014l-0.174,-0.018l-0.173,-0.021l-0.172,-0.026l-0.171,-0.029l-0.168,-0.032l-0.169,-0.037l-0.166,-0.04l-0.165,-0.044l-0.164,-0.047l-0.162,-0.051l-0.16,-0.055l-0.158,-0.058l-0.157,-0.061l-0.155,-0.064l-0.153,-0.068l-0.151,-0.071l-0.15,-0.075l-0.147,-0.077l-0.145,-0.081l-0.143,-0.084l-0.141,-0.087l-0.139,-0.09l-0.136,-0.094l-0.134,-0.096l-0.132,-0.099l-0.129,-0.102l-0.127,-0.105l-0.124,-0.108l-0.121,-0.111l-0.119,-0.114l-0.116,-0.117l-0.113,-0.119l-0.111,-0.122l-0.107,-0.125l-0.104,-0.127l-0.102,-0.131l-0.098,-0.133l-0.095,-0.135l-0.091,-0.138l-0.088,-0.14l-0.085,-0.143l-0.081,-0.146l-0.077,-0.147l-0.074,-0.15l-0.067,-0.146l-0.036,-0.083l-0.032,-0.077l-0.032,-0.079l-0.03,-0.078l-0.03,-0.079l-0.028,-0.079l-0.027,-0.08l-0.027,-0.081l-0.025,-0.081l-0.024,-0.082l-0.023,-0.081l-0.022,-0.082l-0.021,-0.083l-0.02,-0.083l-0.018,-0.084l-0.018,-0.084l-0.016,-0.084l-0.015,-0.085l-0.014,-0.085l-0.013,-0.085l-0.011,-0.086l-0.011,-0.086l-0.009,-0.086l-0.008,-0.086l-0.007,-0.088l-0.006,-0.087l-0.004,-0.087l-0.003,-0.087l-0.002,-0.088l-0.001,-0.088l0.001,-0.089l0.002,-0.087l0.003,-0.088l0.004,-0.087l0.006,-0.087l0.007,-0.087l0.008,-0.087l0.009,-0.086l0.011,-0.086l0.011,-0.085l0.013,-0.086l0.014,-0.085l0.015,-0.085l0.016,-0.084l0.018,-0.084l0.018,-0.083l0.02,-0.083l0.021,-0.083l0.022,-0.083l0.023,-0.081l0.024,-0.082l0.025,-0.081l0.027,-0.081l0.027,-0.079l0.028,-0.08l0.03,-0.079l0.03,-0.078l0.032,-0.078l0.032,-0.078l0.036,-0.083l0.067,-0.146l0.074,-0.15l0.077,-0.147l0.081,-0.146l0.085,-0.142l0.088,-0.141l0.091,-0.138l0.095,-0.135l0.098,-0.133l0.102,-0.13l0.104,-0.128l0.107,-0.124l0.111,-0.123l0.113,-0.119l0.116,-0.116l0.119,-0.114l0.121,-0.111l0.124,-0.108l0.127,-0.105l0.129,-0.103l0.132,-0.099l0.134,-0.096l0.136,-0.093l0.139,-0.09l0.141,-0.088l0.143,-0.084l0.145,-0.08l0.147,-0.078l0.15,-0.074l0.151,-0.072l0.153,-0.067l0.155,-0.065l0.157,-0.061l0.158,-0.058l0.16,-0.054l0.162,-0.051l0.164,-0.048l0.165,-0.044l0.166,-0.04l0.168,-0.036l0.169,-0.033l0.171,-0.029l0.172,-0.026l0.173,-0.021l0.174,-0.018l0.175,-0.014l0.176,-0.01l0.177,-0.006l0.178,-0.002l0.178,0.002Zm-0.262,4.128l-0.084,0.003l-0.084,0.005l-0.082,0.006l-0.081,0.009l-0.08,0.01l-0.08,0.012l-0.079,0.013l-0.078,0.015l-0.077,0.017l-0.076,0.018l-0.075,0.02l-0.074,0.022l-0.073,0.023l-0.072,0.024l-0.072,0.026l-0.07,0.027l-0.069,0.029l-0.067,0.03l-0.067,0.032l-0.065,0.032l-0.065,0.034l-0.063,0.035l-0.061,0.036l-0.06,0.038l-0.06,0.038l-0.058,0.04l-0.056,0.04l-0.055,0.042l-0.053,0.042l-0.052,0.043l-0.051,0.044l-0.049,0.045l-0.048,0.045l-0.046,0.047l-0.045,0.047l-0.042,0.047l-0.042,0.049l-0.04,0.049l-0.038,0.049l-0.037,0.049l-0.035,0.051l-0.034,0.05l-0.032,0.051l-0.03,0.052l-0.029,0.051l-0.027,0.052l-0.026,0.052l-0.027,0.059l-0.008,0.02l-0.012,0.027l-0.01,0.026l-0.01,0.027l-0.01,0.026l-0.01,0.027l-0.009,0.027l-0.009,0.027l-0.008,0.027l-0.008,0.026l-0.008,0.028l-0.007,0.027l-0.007,0.027l-0.006,0.027l-0.006,0.028l-0.006,0.027l-0.006,0.028l-0.004,0.027l-0.005,0.028l-0.004,0.028l-0.004,0.028l-0.003,0.028l-0.003,0.029l-0.003,0.028l-0.002,0.028l-0.002,0.028l-0.002,0.029l-0.001,0.03l0,0.029l0,0.029l0,0.028l0,0.03l0.001,0.029l0.002,0.029l0.002,0.028l0.002,0.028l0.003,0.029l0.003,0.028l0.003,0.028l0.004,0.028l0.004,0.028l0.005,0.028l0.005,0.028l0.005,0.027l0.006,0.027l0.006,0.028l0.006,0.027l0.007,0.027l0.007,0.028l0.008,0.027l0.008,0.027l0.008,0.026l0.009,0.027l0.009,0.027l0.01,0.027l0.01,0.027l0.01,0.026l0.01,0.026l0.012,0.027l0.008,0.02l0.027,0.059l0.026,0.052l0.027,0.052l0.029,0.052l0.03,0.051l0.032,0.051l0.034,0.051l0.035,0.05l0.037,0.05l0.038,0.049l0.04,0.049l0.042,0.048l0.042,0.047l0.045,0.047l0.046,0.047l0.048,0.045l0.049,0.045l0.051,0.044l0.052,0.044l0.053,0.042l0.055,0.041l0.056,0.041l0.058,0.039l0.06,0.039l0.06,0.037l0.061,0.036l0.063,0.035l0.065,0.034l0.065,0.033l0.067,0.031l0.067,0.03l0.069,0.029l0.07,0.027l0.072,0.026l0.072,0.025l0.073,0.023l0.074,0.021l0.075,0.02l0.076,0.018l0.077,0.017l0.078,0.015l0.079,0.014l0.08,0.011l0.08,0.011l0.081,0.008l0.083,0.006l0.083,0.005l0.083,0.003l0.085,0.001l0.085,-0.001l0.083,-0.003l0.083,-0.005l0.083,-0.006l0.081,-0.008l0.081,-0.011l0.079,-0.011l0.079,-0.014l0.079,-0.015l0.076,-0.017l0.076,-0.018l0.076,-0.02l0.074,-0.022l0.072,-0.022l0.073,-0.025l0.071,-0.026l0.07,-0.027l0.069,-0.029l0.068,-0.03l0.066,-0.031l0.066,-0.033l0.064,-0.034l0.063,-0.035l0.062,-0.036l0.06,-0.037l0.059,-0.039l0.058,-0.039l0.056,-0.041l0.055,-0.041l0.054,-0.043l0.052,-0.043l0.05,-0.044l0.05,-0.045l0.047,-0.045l0.046,-0.047l0.045,-0.046l0.043,-0.048l0.041,-0.048l0.04,-0.049l0.038,-0.049l0.037,-0.05l0.035,-0.05l0.034,-0.051l0.032,-0.051l0.03,-0.052l0.029,-0.051l0.027,-0.051l0.026,-0.053l0.027,-0.059l0.009,-0.02l0.011,-0.026l0.01,-0.027l0.011,-0.027l0.01,-0.026l0.009,-0.026l0.009,-0.027l0.009,-0.028l0.008,-0.026l0.008,-0.027l0.008,-0.027l0.007,-0.028l0.007,-0.027l0.006,-0.026l0.007,-0.029l0.006,-0.027l0.005,-0.027l0.005,-0.028l0.004,-0.028l0.004,-0.028l0.004,-0.028l0.004,-0.028l0.003,-0.028l0.002,-0.028l0.003,-0.029l0.001,-0.029l0.002,-0.028l0.001,-0.029l0,-0.029l0.001,-0.029l-0.001,-0.03l0,-0.029l-0.001,-0.029l-0.002,-0.028l-0.001,-0.029l-0.003,-0.029l-0.002,-0.028l-0.003,-0.028l-0.004,-0.028l-0.004,-0.028l-0.004,-0.028l-0.004,-0.028l-0.005,-0.027l-0.005,-0.027l-0.006,-0.028l-0.007,-0.028l-0.006,-0.027l-0.007,-0.026l-0.007,-0.028l-0.008,-0.028l-0.008,-0.026l-0.008,-0.027l-0.009,-0.027l-0.009,-0.027l-0.009,-0.027l-0.01,-0.026l-0.011,-0.027l-0.01,-0.027l-0.011,-0.026l-0.009,-0.02l-0.027,-0.059l-0.026,-0.052l-0.027,-0.052l-0.029,-0.051l-0.03,-0.052l-0.032,-0.051l-0.034,-0.051l-0.035,-0.05l-0.037,-0.049l-0.038,-0.05l-0.04,-0.048l-0.041,-0.049l-0.043,-0.047l-0.045,-0.047l-0.046,-0.047l-0.047,-0.045l-0.05,-0.045l-0.05,-0.044l-0.052,-0.043l-0.054,-0.043l-0.055,-0.041l-0.056,-0.04l-0.058,-0.04l-0.059,-0.039l-0.06,-0.037l-0.062,-0.036l-0.063,-0.035l-0.064,-0.034l-0.066,-0.032l-0.066,-0.032l-0.068,-0.03l-0.069,-0.029l-0.07,-0.027l-0.071,-0.026l-0.073,-0.024l-0.072,-0.023l-0.074,-0.022l-0.075,-0.02l-0.077,-0.018l-0.077,-0.017l-0.078,-0.015l-0.079,-0.013l-0.079,-0.012l-0.081,-0.01l-0.081,-0.009l-0.082,-0.006l-0.084,-0.005l-0.083,-0.003l-0.085,-0.001l-0.084,0.001Z" fill="rgba(173,177,181,0.7)" stroke="rgba(173, 177, 181, 0.7)" stroke-width="2px"></path>
                <path class="uniq-key" transform="matrix(0.39999999999999997, 0, 0, 0.39999999999999997, 192, 72)" d="M9.025,5.185c0,3.699 0,7.398 0,11.097" fill="rgba(173,177,181,0.7)" stroke="rgba(173, 177, 181, 0.7)" stroke-width="2px"></path>
                <path class="uniq-key" transform="matrix(0.39999999999999997, 0, 0, 0.39999999999999997, 192, 72)" d="M7.263,16.899c0,-4.345 0,-8.69 0,-13.035" fill="rgba(173,177,181,0.7)" stroke="rgba(173, 177, 181, 0.7)" stroke-width="2px"></path>
                <path class="uniq-key" transform="matrix(0.39999999999999997, 0, 0, 0.39999999999999997, 192, 72)" d="M10.962,3.864c0,3.948 0,8.116 0,12.154" fill="rgba(173,177,181,0.7)" stroke="rgba(173, 177, 181, 0.7)" stroke-width="2px"></path>
                <path class="uniq-key" transform="matrix(0.39999999999999997, 0, 0, 0.39999999999999997, 192, 72)" d="M13.252,6.066c-0.117,0 -0.235,0 -0.352,0" fill="rgba(173,177,181,0.7)" stroke="rgba(173, 177, 181, 0.7)" stroke-width="2px"></path>
                <path class="uniq-key" transform="matrix(0.39999999999999997, 0, 0, 0.39999999999999997, 192, 72)" d="M13.428,9.853c-0.293,0 -0.587,0 -0.88,0" fill="rgba(173,177,181,0.7)" stroke="rgba(173, 177, 181, 0.7)" stroke-width="2px"></path>
                <path class="uniq-key" transform="matrix(0.39999999999999997, 0, 0, 0.39999999999999997, 192, 72)" d="M13.605,14.08c-0.5,0 -0.999,0 -1.498,0" fill="rgba(173,177,181,0.7)" stroke="rgba(173, 177, 181, 0.7)" stroke-width="2px"></path>
                <path class="uniq-key" transform="matrix(0.39999999999999997, 0, 0, 0.39999999999999997, 192, 72)" d="M8.937,1.926c0,0.44 0,0.881 0,1.321" fill="rgba(173,177,181,0.7)" stroke="rgba(173, 177, 181, 0.7)" stroke-width="2px"></path>
          
        </g>
        <g class="joint-table-row-group" onmousedown="QdbdJS.onRowMouseDown()" onmousemove="QdbdJS.onRowMouseMove()" onmouseup="QdbdJS.onRowMouseUp(21)">
          <rect x="0" y="88" class="joint-table-row" width="279" height="25" stroke="none"></rect>
          
          
          <text x="0" y="110" class="joint-field-text" id="v-3507" pointer-events="none" fill="#333" font-size="12px">
            <tspan x="14" y="110" text-anchor="start" class="joint-field-name ">
              Model
            </tspan>
            <tspan x="265" y="110" text-anchor="end" class="joint-field-type" fill="#adb1b5">
              varchar(max)?
            </tspan>
          </text>
          
          
        </g>
        <g class="joint-table-row-group" onmousedown="QdbdJS.onRowMouseDown()" onmousemove="QdbdJS.onRowMouseMove()" onmouseup="QdbdJS.onRowMouseUp(22)">
          <rect x="0" y="113" class="joint-table-row" width="279" height="25" stroke="none"></rect>
          
          
          <text x="0" y="135" class="joint-field-text" id="v-3508" pointer-events="none" fill="#333" font-size="12px">
            <tspan x="14" y="135" text-anchor="start" class="joint-field-name ">
              Vendor
            </tspan>
            <tspan x="265" y="135" text-anchor="end" class="joint-field-type" fill="#adb1b5">
              varchar(max)?
            </tspan>
          </text>
          
          
        </g>
        <g class="joint-table-row-group" onmousedown="QdbdJS.onRowMouseDown()" onmousemove="QdbdJS.onRowMouseMove()" onmouseup="QdbdJS.onRowMouseUp(23)">
          <rect x="0" y="138" class="joint-table-row" width="279" height="25" stroke="none"></rect>
          
          
          <text x="0" y="160" class="joint-field-text" id="v-3509" pointer-events="none" fill="#333" font-size="12px">
            <tspan x="14" y="160" text-anchor="start" class="joint-field-name ">
              MaxLoad
            </tspan>
            <tspan x="265" y="160" text-anchor="end" class="joint-field-type" fill="#adb1b5">
              decimal(14,5)
            </tspan>
          </text>
          
          
        </g>
        <g class="joint-table-row-group" onmousedown="QdbdJS.onRowMouseDown()" onmousemove="QdbdJS.onRowMouseMove()" onmouseup="QdbdJS.onRowMouseUp(24)">
          <rect x="0" y="163" class="joint-table-row" width="279" height="25" stroke="none"></rect>
          
          
          <text x="0" y="185" class="joint-field-text" id="v-3510" pointer-events="none" fill="#333" font-size="12px">
            <tspan x="14" y="185" text-anchor="start" class="joint-field-name ">
              FuelConsumption
            </tspan>
            <tspan x="265" y="185" text-anchor="end" class="joint-field-type" fill="#adb1b5">
              decimal(14,5)
            </tspan>
          </text>
          
          
        </g>
        <g class="joint-table-row-group" onmousedown="QdbdJS.onRowMouseDown()" onmousemove="QdbdJS.onRowMouseMove()" onmouseup="QdbdJS.onRowMouseUp(25)">
          <rect x="0" y="188" class="joint-table-row" width="279" height="31" stroke="none"></rect>
          
          
          <text x="0" y="210" class="joint-field-text" id="v-3511" pointer-events="none" fill="#333" font-size="12px">
            <tspan x="14" y="210" text-anchor="start" class="joint-field-name ">
              FuelCapacity
            </tspan>
            <tspan x="265" y="210" text-anchor="end" class="joint-field-type" fill="#adb1b5">
              decimal(14,5)
            </tspan>
          </text>
          
          
        <rect x="0" y="219" class="joint-table-row" width="279" height="6" stroke="none"></rect>
        
        </g>
          </g>
        </g></g><g id="j_272" model-id="0cb4cdda-a209-407b-9682-83e6cd088d81" class="element basic newt joint-theme-default" magnet="false" fill="#ffffff" stroke="none" transform="translate(592,131)" font-family="Roboto,'Helvetica Neue', sans-serif"><g class="joint-table" onmousedown="QdbdJS.onTableMouseDown(this)" onmouseup="QdbdJS.onTableMouseUp(this)" id="v-3468">
          <rect x="0" y="0" width="234" height="38" class="joint-table-title" onmousedown="QdbdJS.onRowMouseDown()" onmousemove="QdbdJS.onRowMouseMove()" onmouseup="QdbdJS.onRowMouseUp(8)" fill="#005aa0" stroke="#005aa0"></rect>
          <text x="14" y="24" text-anchor="start" class="joint-table-title-text" id="v-3481" pointer-events="none" font-size="14px">Parcel</text>
          <g class="joint-table-rows">
            
        <g class="joint-table-row-group" onmousedown="QdbdJS.onRowMouseDown()" onmousemove="QdbdJS.onRowMouseMove()" onmouseup="QdbdJS.onRowMouseUp(10)">
          <rect x="0" y="38" class="joint-table-row" width="234" height="25" stroke="none"></rect>
          
          
          <text x="0" y="60" class="joint-field-text" id="v-3482" pointer-events="none" fill="#333" font-size="12px">
            <tspan x="14" y="60" text-anchor="start" class="joint-field-name pk" fill="#005aa0" font-weight="bold">
              ParcelID
            </tspan>
            <tspan x="220" y="60" text-anchor="end" class="joint-field-type" fill="#adb1b5">
              int
            </tspan>
          </text>
          <path class="pk-key" transform="matrix(0.7, 0, 0, 0.7, 183, 47)" d="M22.208,2.205l0.167,0.006l0.167,0.011l0.166,0.015l0.165,0.019l0.164,0.023l0.163,0.028l0.161,0.031l0.16,0.035l0.158,0.039l0.157,0.043l0.156,0.047l0.153,0.051l0.152,0.054l0.151,0.058l0.148,0.061l0.146,0.065l0.145,0.068l0.142,0.072l0.141,0.075l0.138,0.078l0.136,0.082l0.134,0.085l0.132,0.087l0.129,0.091l0.127,0.094l0.125,0.097l0.122,0.099l0.12,0.103l0.117,0.105l0.114,0.108l0.112,0.11l0.11,0.114l0.106,0.116l0.104,0.118l0.101,0.121l0.098,0.123l0.096,0.126l0.092,0.128l0.089,0.13l0.087,0.133l0.083,0.135l0.08,0.137l0.077,0.139l0.074,0.141l0.07,0.144l0.067,0.145l0.064,0.147l0.06,0.149l0.056,0.151l0.053,0.152l0.05,0.154l0.046,0.156l0.042,0.157l0.038,0.159l0.035,0.16l0.03,0.162l0.027,0.162l0.023,0.164l0.018,0.165l0.015,0.167l0.01,0.167l0.007,0.168l0.002,0.168l-0.002,0.169l-0.007,0.168l-0.01,0.167l-0.015,0.166l-0.018,0.166l-0.023,0.163l-0.027,0.163l-0.03,0.162l-0.035,0.16l-0.038,0.159l-0.042,0.157l-0.046,0.156l-0.05,0.154l-0.053,0.152l-0.056,0.151l-0.06,0.149l-0.064,0.147l-0.067,0.145l-0.07,0.143l-0.074,0.142l-0.077,0.139l-0.08,0.137l-0.083,0.135l-0.087,0.132l-0.089,0.131l-0.092,0.128l-0.096,0.125l-0.098,0.124l-0.101,0.121l-0.104,0.118l-0.106,0.116l-0.11,0.113l-0.112,0.111l-0.114,0.108l-0.117,0.105l-0.12,0.103l-0.122,0.099l-0.125,0.097l-0.127,0.094l-0.129,0.09l-0.132,0.088l-0.134,0.085l-0.136,0.081l-0.138,0.078l-0.141,0.076l-0.142,0.071l-0.145,0.069l-0.146,0.064l-0.148,0.062l-0.151,0.058l-0.152,0.054l-0.153,0.05l-0.156,0.047l-0.157,0.043l-0.158,0.039l-0.16,0.036l-0.161,0.031l-0.163,0.027l-0.164,0.024l-0.165,0.019l-0.166,0.015l-0.167,0.01l-0.167,0.007l-0.169,0.002l-0.168,-0.002l-0.168,-0.007l-0.167,-0.01l-0.166,-0.015l-0.165,-0.019l-0.164,-0.024l-0.163,-0.027l-0.161,-0.031l-0.16,-0.036l-0.158,-0.039l-0.157,-0.043l-0.156,-0.047l-0.153,-0.05l-0.152,-0.054l-0.15,-0.058l-0.149,-0.062l-0.146,-0.064l-0.145,-0.069l-0.142,-0.071l-0.141,-0.076l-0.138,-0.078l-0.136,-0.081l-0.134,-0.085l-0.132,-0.088l-0.129,-0.09l-0.127,-0.094l-0.125,-0.097l-0.122,-0.099l-0.12,-0.103l-0.117,-0.105l-0.114,-0.108l-0.112,-0.111l-0.11,-0.113l-0.106,-0.116l-0.104,-0.118l-0.101,-0.121l-0.098,-0.123l-0.096,-0.126l-0.092,-0.128l-0.089,-0.131l-0.087,-0.132l-0.083,-0.135l-0.08,-0.137l-0.077,-0.139l-0.073,-0.142l-0.071,-0.143l-0.067,-0.145l-0.063,-0.147l-0.061,-0.149l-0.056,-0.151l-0.053,-0.152l-0.05,-0.154l-0.046,-0.156l-0.042,-0.157l-0.038,-0.159l-0.035,-0.16l-0.03,-0.162l-0.027,-0.163l-0.023,-0.164l-0.018,-0.165l-0.015,-0.166l-0.01,-0.167l-0.007,-0.168l-0.002,-0.169l0.002,-0.168l0.007,-0.168l0.01,-0.167l0.015,-0.167l0.018,-0.165l0.023,-0.164l0.027,-0.162l0.03,-0.162l0.035,-0.16l0.038,-0.159l0.042,-0.157l0.046,-0.156l0.05,-0.154l0.053,-0.152l0.056,-0.151l0.061,-0.149l0.063,-0.147l0.067,-0.145l0.071,-0.144l0.073,-0.141l0.077,-0.139l0.08,-0.137l0.083,-0.135l0.087,-0.133l0.089,-0.13l0.092,-0.128l0.096,-0.126l0.098,-0.123l0.101,-0.121l0.104,-0.118l0.106,-0.116l0.11,-0.114l0.112,-0.11l0.114,-0.108l0.117,-0.105l0.12,-0.103l0.122,-0.099l0.125,-0.097l0.127,-0.094l0.129,-0.091l0.132,-0.087l0.134,-0.085l0.136,-0.081l0.138,-0.079l0.141,-0.075l0.142,-0.072l0.145,-0.068l0.146,-0.065l0.149,-0.061l0.15,-0.058l0.152,-0.054l0.153,-0.051l0.156,-0.047l0.157,-0.043l0.158,-0.039l0.16,-0.035l0.161,-0.031l0.163,-0.028l0.164,-0.023l0.165,-0.019l0.166,-0.015l0.167,-0.011l0.167,-0.006l0.169,-0.002l0.169,0.002Zm-0.232,4.128l-0.062,0.002l-0.061,0.004l-0.061,0.006l-0.06,0.007l-0.059,0.008l-0.059,0.01l-0.059,0.011l-0.058,0.013l-0.057,0.014l-0.057,0.016l-0.056,0.017l-0.055,0.018l-0.056,0.02l-0.054,0.021l-0.054,0.022l-0.053,0.024l-0.053,0.025l-0.052,0.026l-0.052,0.027l-0.05,0.029l-0.051,0.03l-0.049,0.031l-0.049,0.033l-0.048,0.033l-0.047,0.035l-0.046,0.036l-0.046,0.037l-0.044,0.039l-0.044,0.039l-0.043,0.04l-0.042,0.042l-0.041,0.042l-0.04,0.044l-0.039,0.044l-0.038,0.046l-0.037,0.046l-0.036,0.048l-0.035,0.048l-0.033,0.049l-0.033,0.05l-0.031,0.05l-0.03,0.052l-0.029,0.052l-0.028,0.053l-0.026,0.054l-0.025,0.054l-0.024,0.055l-0.023,0.056l-0.021,0.056l-0.02,0.057l-0.018,0.058l-0.017,0.059l-0.016,0.059l-0.014,0.059l-0.013,0.06l-0.012,0.061l-0.01,0.062l-0.009,0.062l-0.007,0.062l-0.005,0.064l-0.004,0.063l-0.003,0.065l0,0.065l0,0.066l0.003,0.064l0.004,0.064l0.005,0.063l0.007,0.063l0.009,0.062l0.01,0.062l0.012,0.06l0.013,0.061l0.014,0.059l0.016,0.059l0.017,0.058l0.018,0.058l0.02,0.057l0.021,0.057l0.023,0.055l0.024,0.056l0.025,0.054l0.026,0.054l0.028,0.053l0.029,0.052l0.03,0.051l0.031,0.051l0.033,0.05l0.033,0.049l0.035,0.048l0.036,0.047l0.037,0.047l0.038,0.045l0.039,0.045l0.04,0.043l0.041,0.043l0.042,0.041l0.043,0.041l0.044,0.039l0.044,0.038l0.046,0.037l0.046,0.036l0.047,0.035l0.048,0.034l0.049,0.032l0.049,0.032l0.051,0.03l0.05,0.028l0.052,0.028l0.052,0.026l0.053,0.025l0.053,0.024l0.054,0.022l0.054,0.021l0.056,0.02l0.055,0.018l0.056,0.017l0.057,0.015l0.057,0.015l0.058,0.012l0.059,0.012l0.059,0.01l0.059,0.008l0.06,0.007l0.061,0.005l0.061,0.004l0.062,0.003l0.063,0.001l0.063,-0.001l0.062,-0.003l0.061,-0.004l0.061,-0.005l0.06,-0.007l0.059,-0.008l0.059,-0.01l0.059,-0.012l0.058,-0.012l0.057,-0.015l0.057,-0.015l0.056,-0.017l0.056,-0.018l0.055,-0.02l0.054,-0.021l0.054,-0.022l0.053,-0.024l0.053,-0.025l0.052,-0.026l0.052,-0.028l0.051,-0.028l0.05,-0.031l0.049,-0.031l0.049,-0.032l0.048,-0.034l0.047,-0.035l0.046,-0.036l0.046,-0.037l0.045,-0.038l0.043,-0.039l0.043,-0.041l0.042,-0.041l0.041,-0.043l0.04,-0.043l0.039,-0.045l0.038,-0.045l0.037,-0.046l0.036,-0.048l0.035,-0.048l0.033,-0.049l0.033,-0.05l0.031,-0.05l0.03,-0.052l0.029,-0.052l0.028,-0.053l0.026,-0.054l0.025,-0.054l0.024,-0.055l0.023,-0.056l0.021,-0.057l0.02,-0.057l0.018,-0.058l0.017,-0.058l0.016,-0.059l0.014,-0.059l0.013,-0.061l0.012,-0.06l0.01,-0.062l0.009,-0.062l0.007,-0.063l0.005,-0.063l0.004,-0.064l0.003,-0.064l0.001,-0.066l-0.001,-0.065l-0.003,-0.064l-0.004,-0.064l-0.005,-0.064l-0.007,-0.062l-0.009,-0.062l-0.01,-0.062l-0.012,-0.061l-0.013,-0.06l-0.014,-0.059l-0.016,-0.059l-0.017,-0.059l-0.018,-0.058l-0.02,-0.057l-0.021,-0.056l-0.023,-0.056l-0.024,-0.055l-0.025,-0.054l-0.026,-0.054l-0.028,-0.053l-0.029,-0.052l-0.03,-0.052l-0.031,-0.05l-0.033,-0.05l-0.033,-0.049l-0.035,-0.048l-0.036,-0.048l-0.037,-0.046l-0.038,-0.046l-0.039,-0.044l-0.04,-0.044l-0.041,-0.042l-0.042,-0.042l-0.043,-0.04l-0.043,-0.039l-0.045,-0.039l-0.046,-0.037l-0.046,-0.036l-0.047,-0.035l-0.048,-0.033l-0.049,-0.033l-0.049,-0.031l-0.05,-0.03l-0.051,-0.029l-0.052,-0.027l-0.052,-0.026l-0.053,-0.025l-0.053,-0.024l-0.054,-0.022l-0.054,-0.021l-0.055,-0.02l-0.056,-0.018l-0.056,-0.017l-0.057,-0.016l-0.057,-0.014l-0.058,-0.013l-0.059,-0.011l-0.059,-0.01l-0.059,-0.008l-0.06,-0.007l-0.061,-0.006l-0.061,-0.004l-0.062,-0.002l-0.063,-0.001l-0.063,0.001Z" fill="rgba(173,177,181,0.7)"></path>
                <rect class="pk-key" x="184" y="51.5" width="10.2" height="3" fill="rgba(173,177,181,0.7)"></rect>
                <rect class="pk-key" x="185.2" y="54.5" width="2" height="3" fill="rgba(173,177,181,0.7)"></rect>
                <rect class="pk-key" x="189" y="54.5" width="2" height="3" fill="rgba(173,177,181,0.7)"></rect>
          
        </g>
        <g class="joint-table-row-group" onmousedown="QdbdJS.onRowMouseDown()" onmousemove="QdbdJS.onRowMouseMove()" onmouseup="QdbdJS.onRowMouseUp(11)">
          <rect x="0" y="63" class="joint-table-row" width="234" height="25" stroke="none"></rect>
          
          
          <text x="0" y="85" class="joint-field-text" id="v-3483" pointer-events="none" fill="#333" font-size="12px">
            <tspan x="14" y="85" text-anchor="start" class="joint-field-name fk" fill="#222" font-weight="bold">
              DeparturePointID
            </tspan>
            <tspan x="220" y="85" text-anchor="end" class="joint-field-type" fill="#adb1b5">
              int?
            </tspan>
          </text>
          
          
        </g>
        <g class="joint-table-row-group" onmousedown="QdbdJS.onRowMouseDown()" onmousemove="QdbdJS.onRowMouseMove()" onmouseup="QdbdJS.onRowMouseUp(12)">
          <rect x="0" y="88" class="joint-table-row" width="234" height="25" stroke="none"></rect>
          
          
          <text x="0" y="110" class="joint-field-text" id="v-3484" pointer-events="none" fill="#333" font-size="12px">
            <tspan x="14" y="110" text-anchor="start" class="joint-field-name fk" fill="#222" font-weight="bold">
              DeliveryPointID
            </tspan>
            <tspan x="220" y="110" text-anchor="end" class="joint-field-type" fill="#adb1b5">
              int?
            </tspan>
          </text>
          
          
        </g>
        <g class="joint-table-row-group" onmousedown="QdbdJS.onRowMouseDown()" onmousemove="QdbdJS.onRowMouseMove()" onmouseup="QdbdJS.onRowMouseUp(13)">
          <rect x="0" y="113" class="joint-table-row" width="234" height="25" stroke="none"></rect>
          
          
          <text x="0" y="135" class="joint-field-text" id="v-3485" pointer-events="none" fill="#333" font-size="12px">
            <tspan x="14" y="135" text-anchor="start" class="joint-field-name ">
              Weight
            </tspan>
            <tspan x="220" y="135" text-anchor="end" class="joint-field-type" fill="#adb1b5">
              decimal(14,5)
            </tspan>
          </text>
          
          
        </g>
        <g class="joint-table-row-group" onmousedown="QdbdJS.onRowMouseDown()" onmousemove="QdbdJS.onRowMouseMove()" onmouseup="QdbdJS.onRowMouseUp(14)">
          <rect x="0" y="138" class="joint-table-row" width="234" height="25" stroke="none"></rect>
          
          
          <text x="0" y="160" class="joint-field-text" id="v-3486" pointer-events="none" fill="#333" font-size="12px">
            <tspan x="14" y="160" text-anchor="start" class="joint-field-name ">
              CustomerName
            </tspan>
            <tspan x="220" y="160" text-anchor="end" class="joint-field-type" fill="#adb1b5">
              varchar(max)?
            </tspan>
          </text>
          
          
        </g>
        <g class="joint-table-row-group" onmousedown="QdbdJS.onRowMouseDown()" onmousemove="QdbdJS.onRowMouseMove()" onmouseup="QdbdJS.onRowMouseUp(15)">
          <rect x="0" y="163" class="joint-table-row" width="234" height="31" stroke="none"></rect>
          
          
          <text x="0" y="185" class="joint-field-text" id="v-3487" pointer-events="none" fill="#333" font-size="12px">
            <tspan x="14" y="185" text-anchor="start" class="joint-field-name ">
              CustomerPhone
            </tspan>
            <tspan x="220" y="185" text-anchor="end" class="joint-field-type" fill="#adb1b5">
              varchar(max)?
            </tspan>
          </text>
          
          
        <rect x="0" y="194" class="joint-table-row" width="234" height="6" stroke="none"></rect>
        
        </g>
          </g>
        </g></g><g id="j_271" model-id="53cf73b9-2614-4c64-8a98-046ec642df9c" class="element basic newt joint-theme-default" magnet="false" fill="#ffffff" stroke="none" transform="translate(20,20)" font-family="Roboto,'Helvetica Neue', sans-serif"><g class="joint-table" onmousedown="QdbdJS.onTableMouseDown(this)" onmouseup="QdbdJS.onTableMouseUp(this)" id="v-3453">
          <rect x="0" y="0" width="189" height="38" class="joint-table-title" onmousedown="QdbdJS.onRowMouseDown()" onmousemove="QdbdJS.onRowMouseMove()" onmouseup="QdbdJS.onRowMouseUp(1)" fill="#005aa0" stroke="#005aa0"></rect>
          <text x="14" y="24" text-anchor="start" class="joint-table-title-text" id="v-3462" pointer-events="none" font-size="14px">Location</text>
          <g class="joint-table-rows">
            
        <g class="joint-table-row-group" onmousedown="QdbdJS.onRowMouseDown()" onmousemove="QdbdJS.onRowMouseMove()" onmouseup="QdbdJS.onRowMouseUp(3)">
          <rect x="0" y="38" class="joint-table-row" width="189" height="25" stroke="none"></rect>
          
          
          <text x="0" y="60" class="joint-field-text" id="v-3463" pointer-events="none" fill="#333" font-size="12px">
            <tspan x="14" y="60" text-anchor="start" class="joint-field-name pk" fill="#005aa0" font-weight="bold">
              LocationID
            </tspan>
            <tspan x="175" y="60" text-anchor="end" class="joint-field-type" fill="#adb1b5">
              int
            </tspan>
          </text>
          <path class="pk-key" transform="matrix(0.7, 0, 0, 0.7, 138, 47)" d="M22.208,2.205l0.167,0.006l0.167,0.011l0.166,0.015l0.165,0.019l0.164,0.023l0.163,0.028l0.161,0.031l0.16,0.035l0.158,0.039l0.157,0.043l0.156,0.047l0.153,0.051l0.152,0.054l0.151,0.058l0.148,0.061l0.146,0.065l0.145,0.068l0.142,0.072l0.141,0.075l0.138,0.078l0.136,0.082l0.134,0.085l0.132,0.087l0.129,0.091l0.127,0.094l0.125,0.097l0.122,0.099l0.12,0.103l0.117,0.105l0.114,0.108l0.112,0.11l0.11,0.114l0.106,0.116l0.104,0.118l0.101,0.121l0.098,0.123l0.096,0.126l0.092,0.128l0.089,0.13l0.087,0.133l0.083,0.135l0.08,0.137l0.077,0.139l0.074,0.141l0.07,0.144l0.067,0.145l0.064,0.147l0.06,0.149l0.056,0.151l0.053,0.152l0.05,0.154l0.046,0.156l0.042,0.157l0.038,0.159l0.035,0.16l0.03,0.162l0.027,0.162l0.023,0.164l0.018,0.165l0.015,0.167l0.01,0.167l0.007,0.168l0.002,0.168l-0.002,0.169l-0.007,0.168l-0.01,0.167l-0.015,0.166l-0.018,0.166l-0.023,0.163l-0.027,0.163l-0.03,0.162l-0.035,0.16l-0.038,0.159l-0.042,0.157l-0.046,0.156l-0.05,0.154l-0.053,0.152l-0.056,0.151l-0.06,0.149l-0.064,0.147l-0.067,0.145l-0.07,0.143l-0.074,0.142l-0.077,0.139l-0.08,0.137l-0.083,0.135l-0.087,0.132l-0.089,0.131l-0.092,0.128l-0.096,0.125l-0.098,0.124l-0.101,0.121l-0.104,0.118l-0.106,0.116l-0.11,0.113l-0.112,0.111l-0.114,0.108l-0.117,0.105l-0.12,0.103l-0.122,0.099l-0.125,0.097l-0.127,0.094l-0.129,0.09l-0.132,0.088l-0.134,0.085l-0.136,0.081l-0.138,0.078l-0.141,0.076l-0.142,0.071l-0.145,0.069l-0.146,0.064l-0.148,0.062l-0.151,0.058l-0.152,0.054l-0.153,0.05l-0.156,0.047l-0.157,0.043l-0.158,0.039l-0.16,0.036l-0.161,0.031l-0.163,0.027l-0.164,0.024l-0.165,0.019l-0.166,0.015l-0.167,0.01l-0.167,0.007l-0.169,0.002l-0.168,-0.002l-0.168,-0.007l-0.167,-0.01l-0.166,-0.015l-0.165,-0.019l-0.164,-0.024l-0.163,-0.027l-0.161,-0.031l-0.16,-0.036l-0.158,-0.039l-0.157,-0.043l-0.156,-0.047l-0.153,-0.05l-0.152,-0.054l-0.15,-0.058l-0.149,-0.062l-0.146,-0.064l-0.145,-0.069l-0.142,-0.071l-0.141,-0.076l-0.138,-0.078l-0.136,-0.081l-0.134,-0.085l-0.132,-0.088l-0.129,-0.09l-0.127,-0.094l-0.125,-0.097l-0.122,-0.099l-0.12,-0.103l-0.117,-0.105l-0.114,-0.108l-0.112,-0.111l-0.11,-0.113l-0.106,-0.116l-0.104,-0.118l-0.101,-0.121l-0.098,-0.123l-0.096,-0.126l-0.092,-0.128l-0.089,-0.131l-0.087,-0.132l-0.083,-0.135l-0.08,-0.137l-0.077,-0.139l-0.073,-0.142l-0.071,-0.143l-0.067,-0.145l-0.063,-0.147l-0.061,-0.149l-0.056,-0.151l-0.053,-0.152l-0.05,-0.154l-0.046,-0.156l-0.042,-0.157l-0.038,-0.159l-0.035,-0.16l-0.03,-0.162l-0.027,-0.163l-0.023,-0.164l-0.018,-0.165l-0.015,-0.166l-0.01,-0.167l-0.007,-0.168l-0.002,-0.169l0.002,-0.168l0.007,-0.168l0.01,-0.167l0.015,-0.167l0.018,-0.165l0.023,-0.164l0.027,-0.162l0.03,-0.162l0.035,-0.16l0.038,-0.159l0.042,-0.157l0.046,-0.156l0.05,-0.154l0.053,-0.152l0.056,-0.151l0.061,-0.149l0.063,-0.147l0.067,-0.145l0.071,-0.144l0.073,-0.141l0.077,-0.139l0.08,-0.137l0.083,-0.135l0.087,-0.133l0.089,-0.13l0.092,-0.128l0.096,-0.126l0.098,-0.123l0.101,-0.121l0.104,-0.118l0.106,-0.116l0.11,-0.114l0.112,-0.11l0.114,-0.108l0.117,-0.105l0.12,-0.103l0.122,-0.099l0.125,-0.097l0.127,-0.094l0.129,-0.091l0.132,-0.087l0.134,-0.085l0.136,-0.081l0.138,-0.079l0.141,-0.075l0.142,-0.072l0.145,-0.068l0.146,-0.065l0.149,-0.061l0.15,-0.058l0.152,-0.054l0.153,-0.051l0.156,-0.047l0.157,-0.043l0.158,-0.039l0.16,-0.035l0.161,-0.031l0.163,-0.028l0.164,-0.023l0.165,-0.019l0.166,-0.015l0.167,-0.011l0.167,-0.006l0.169,-0.002l0.169,0.002Zm-0.232,4.128l-0.062,0.002l-0.061,0.004l-0.061,0.006l-0.06,0.007l-0.059,0.008l-0.059,0.01l-0.059,0.011l-0.058,0.013l-0.057,0.014l-0.057,0.016l-0.056,0.017l-0.055,0.018l-0.056,0.02l-0.054,0.021l-0.054,0.022l-0.053,0.024l-0.053,0.025l-0.052,0.026l-0.052,0.027l-0.05,0.029l-0.051,0.03l-0.049,0.031l-0.049,0.033l-0.048,0.033l-0.047,0.035l-0.046,0.036l-0.046,0.037l-0.044,0.039l-0.044,0.039l-0.043,0.04l-0.042,0.042l-0.041,0.042l-0.04,0.044l-0.039,0.044l-0.038,0.046l-0.037,0.046l-0.036,0.048l-0.035,0.048l-0.033,0.049l-0.033,0.05l-0.031,0.05l-0.03,0.052l-0.029,0.052l-0.028,0.053l-0.026,0.054l-0.025,0.054l-0.024,0.055l-0.023,0.056l-0.021,0.056l-0.02,0.057l-0.018,0.058l-0.017,0.059l-0.016,0.059l-0.014,0.059l-0.013,0.06l-0.012,0.061l-0.01,0.062l-0.009,0.062l-0.007,0.062l-0.005,0.064l-0.004,0.063l-0.003,0.065l0,0.065l0,0.066l0.003,0.064l0.004,0.064l0.005,0.063l0.007,0.063l0.009,0.062l0.01,0.062l0.012,0.06l0.013,0.061l0.014,0.059l0.016,0.059l0.017,0.058l0.018,0.058l0.02,0.057l0.021,0.057l0.023,0.055l0.024,0.056l0.025,0.054l0.026,0.054l0.028,0.053l0.029,0.052l0.03,0.051l0.031,0.051l0.033,0.05l0.033,0.049l0.035,0.048l0.036,0.047l0.037,0.047l0.038,0.045l0.039,0.045l0.04,0.043l0.041,0.043l0.042,0.041l0.043,0.041l0.044,0.039l0.044,0.038l0.046,0.037l0.046,0.036l0.047,0.035l0.048,0.034l0.049,0.032l0.049,0.032l0.051,0.03l0.05,0.028l0.052,0.028l0.052,0.026l0.053,0.025l0.053,0.024l0.054,0.022l0.054,0.021l0.056,0.02l0.055,0.018l0.056,0.017l0.057,0.015l0.057,0.015l0.058,0.012l0.059,0.012l0.059,0.01l0.059,0.008l0.06,0.007l0.061,0.005l0.061,0.004l0.062,0.003l0.063,0.001l0.063,-0.001l0.062,-0.003l0.061,-0.004l0.061,-0.005l0.06,-0.007l0.059,-0.008l0.059,-0.01l0.059,-0.012l0.058,-0.012l0.057,-0.015l0.057,-0.015l0.056,-0.017l0.056,-0.018l0.055,-0.02l0.054,-0.021l0.054,-0.022l0.053,-0.024l0.053,-0.025l0.052,-0.026l0.052,-0.028l0.051,-0.028l0.05,-0.031l0.049,-0.031l0.049,-0.032l0.048,-0.034l0.047,-0.035l0.046,-0.036l0.046,-0.037l0.045,-0.038l0.043,-0.039l0.043,-0.041l0.042,-0.041l0.041,-0.043l0.04,-0.043l0.039,-0.045l0.038,-0.045l0.037,-0.046l0.036,-0.048l0.035,-0.048l0.033,-0.049l0.033,-0.05l0.031,-0.05l0.03,-0.052l0.029,-0.052l0.028,-0.053l0.026,-0.054l0.025,-0.054l0.024,-0.055l0.023,-0.056l0.021,-0.057l0.02,-0.057l0.018,-0.058l0.017,-0.058l0.016,-0.059l0.014,-0.059l0.013,-0.061l0.012,-0.06l0.01,-0.062l0.009,-0.062l0.007,-0.063l0.005,-0.063l0.004,-0.064l0.003,-0.064l0.001,-0.066l-0.001,-0.065l-0.003,-0.064l-0.004,-0.064l-0.005,-0.064l-0.007,-0.062l-0.009,-0.062l-0.01,-0.062l-0.012,-0.061l-0.013,-0.06l-0.014,-0.059l-0.016,-0.059l-0.017,-0.059l-0.018,-0.058l-0.02,-0.057l-0.021,-0.056l-0.023,-0.056l-0.024,-0.055l-0.025,-0.054l-0.026,-0.054l-0.028,-0.053l-0.029,-0.052l-0.03,-0.052l-0.031,-0.05l-0.033,-0.05l-0.033,-0.049l-0.035,-0.048l-0.036,-0.048l-0.037,-0.046l-0.038,-0.046l-0.039,-0.044l-0.04,-0.044l-0.041,-0.042l-0.042,-0.042l-0.043,-0.04l-0.043,-0.039l-0.045,-0.039l-0.046,-0.037l-0.046,-0.036l-0.047,-0.035l-0.048,-0.033l-0.049,-0.033l-0.049,-0.031l-0.05,-0.03l-0.051,-0.029l-0.052,-0.027l-0.052,-0.026l-0.053,-0.025l-0.053,-0.024l-0.054,-0.022l-0.054,-0.021l-0.055,-0.02l-0.056,-0.018l-0.056,-0.017l-0.057,-0.016l-0.057,-0.014l-0.058,-0.013l-0.059,-0.011l-0.059,-0.01l-0.059,-0.008l-0.06,-0.007l-0.061,-0.006l-0.061,-0.004l-0.062,-0.002l-0.063,-0.001l-0.063,0.001Z" fill="rgba(173,177,181,0.7)"></path>
                <rect class="pk-key" x="139" y="51.5" width="10.2" height="3" fill="rgba(173,177,181,0.7)"></rect>
                <rect class="pk-key" x="140.2" y="54.5" width="2" height="3" fill="rgba(173,177,181,0.7)"></rect>
                <rect class="pk-key" x="144" y="54.5" width="2" height="3" fill="rgba(173,177,181,0.7)"></rect>
          
        </g>
        <g class="joint-table-row-group" onmousedown="QdbdJS.onRowMouseDown()" onmousemove="QdbdJS.onRowMouseMove()" onmouseup="QdbdJS.onRowMouseUp(4)">
          <rect x="0" y="63" class="joint-table-row" width="189" height="25" stroke="none"></rect>
          
          
          <text x="0" y="85" class="joint-field-text" id="v-3464" pointer-events="none" fill="#333" font-size="12px">
            <tspan x="14" y="85" text-anchor="start" class="joint-field-name ">
              Name
            </tspan>
            <tspan x="175" y="85" text-anchor="end" class="joint-field-type" fill="#adb1b5">
              varchar(max)?
            </tspan>
          </text>
          
          
        </g>
        <g class="joint-table-row-group" onmousedown="QdbdJS.onRowMouseDown()" onmousemove="QdbdJS.onRowMouseMove()" onmouseup="QdbdJS.onRowMouseUp(5)">
          <rect x="0" y="88" class="joint-table-row" width="189" height="25" stroke="none"></rect>
          
          
          <text x="0" y="110" class="joint-field-text" id="v-3465" pointer-events="none" fill="#333" font-size="12px">
            <tspan x="14" y="110" text-anchor="start" class="joint-field-name ">
              Address
            </tspan>
            <tspan x="175" y="110" text-anchor="end" class="joint-field-type" fill="#adb1b5">
              varchar(max)?
            </tspan>
          </text>
          
          
        </g>
        <g class="joint-table-row-group" onmousedown="QdbdJS.onRowMouseDown()" onmousemove="QdbdJS.onRowMouseMove()" onmouseup="QdbdJS.onRowMouseUp(6)">
          <rect x="0" y="113" class="joint-table-row" width="189" height="31" stroke="none"></rect>
          
          
          <text x="0" y="135" class="joint-field-text" id="v-3466" pointer-events="none" fill="#333" font-size="12px">
            <tspan x="14" y="135" text-anchor="start" class="joint-field-name ">
              Coordinates
            </tspan>
            <tspan x="175" y="135" text-anchor="end" class="joint-field-type" fill="#adb1b5">
              geography
            </tspan>
          </text>
          
          
        <rect x="0" y="144" class="joint-table-row" width="189" height="6" stroke="none"></rect>
        
        </g>
          </g>
        </g></g></g><defs id="v-10"></defs><text class="qdbd-link" x="10" y="20" font-family="Roboto,'Helvetica Neue', sans-serif">www.quickdatabasediagrams.com</text></svg>